<?xml version="1.0" encoding="utf-8"?>
<!-- Generator: Adobe Illustrator 21.0.0, SVG Export Plug-In . SVG Version: 6.00 Build 0)  -->
<svg version="1.1" id="Layer_1" xmlns="http://www.w3.org/2000/svg" xmlns:xlink="http://www.w3.org/1999/xlink" x="0px" y="0px"
	 viewBox="0 0 634 745" style="enable-background:new 0 0 634 745;" xml:space="preserve">
<style type="text/css">
	.st0{fill:#E2DED6;}
	.st1{fill:none;stroke:#FFFFFF;stroke-width:0.5;stroke-miterlimit:10;}
	
		.st2{clip-path:url(#SVGID_2_);fill:none;stroke:#4275B8;stroke-width:0.5;stroke-linecap:round;stroke-linejoin:round;stroke-miterlimit:10;}
	
		.st3{clip-path:url(#SVGID_2_);fill:none;stroke:#FF5700;stroke-width:0.5;stroke-linecap:round;stroke-linejoin:round;stroke-miterlimit:10;}
	.st4{fill:none;stroke:#272525;stroke-width:0.5;stroke-miterlimit:10;}
	.st5{fill:#272525;}
	.st6{font-family:'Helvetica';}
	.st7{font-size:14px;}
</style>
<g>
	<rect x="44" y="6" class="st0" width="580" height="700"/>
	<path class="st1" d="M44,618.5h580 M44,531h580 M44,443.5h580 M44,356h580 M44,268.5h580 M44,181h580 M44,93.5h580 M140.7,706V6
		 M237.4,706V6 M334,706V6 M430.7,706V6 M527.4,706V6"/>
	<g>
		<defs>
			<rect id="SVGID_1_" x="44" y="6" width="580" height="700"/>
		</defs>
		<clipPath id="SVGID_2_">
			<use xlink:href="#SVGID_1_"  style="overflow:visible;"/>
		</clipPath>
		<path class="st2" d="M44,399.8l19.3,98l19.3,87.5L102,657l19.3,43.8l19.3,5.2 M44,398l19.3,31.5l19.3,56l19.3,47.2l19.3,56
			l19.3,80.5l19.3,35l19.3,1.7 M44,396.3l19.3,77l19.3,70l19.3,66.5l19.3,73.5l19.3,22.8 M44,394.5l19.3,71.7L82.7,545l19.3,50.7
			l19.3,61.2l19.3,43.8L160,706 M44,392.8l19.3,94.5L82.7,566l19.3,82.2l19.3,49l19.3,8.8 M44,391l19.3,66.5L82.7,482l19.3,24.5
			l19.3,12.2l19.3,12.3l19.3,33.2l19.3,31.5l19.3,36.8l19.3,50.8l19.3,22.8 M44,389.3l19.3,35L82.7,440l19.3,33.3l19.3,15.8
			l19.3,5.2l19.3,5.2l19.3,5.2l19.3,19.2l19.3,17.5l19.3,33.2l19.3,35l19.3,42l19.3,43.8l19.3,10.5 M44,387.5L63.4,447l19.3,29.7
			l19.3,28l19.3,15.8l19.3,24.5l19.3,26.2l19.3,43.7l19.3,66.5L218,706 M44,385.8l19.3,24.5l19.3,8.7l19.3-5.2l19.3-7l19.3-19.2
			l19.3-14l19.3-7l19.3-15.8l19.3-19.2l19.3-21l19.3-12.3l19.3-24.5l19.3-22.8l19.3-21l19.3-14l19.3-15.8l19.3-35l19.3-31.5
			l19.3-33.2l19.3-7L450,77.8l19.3-26.2l19.3-15.8L508,18.3l19.3-15.8l19.3-15.8l19.3-5.2L585.4-36l19.3-7l19.3-7 M44,384l19.3,87.5
			L82.7,552l19.3,56l19.3,66.5l19.3,31.5 M44,382.3l19.3,105l19.3,63L102,615l19.3,68.2l19.3,22.8 M44,380.5L63.4,433l19.3,56
			l19.3,38.5l19.3,54.3l19.3,73.5L160,706 M44,378.8l19.3,29.7l19.3,29.8l19.3,49l19.3,56l19.3,56l19.3,84l19.3,22.8 M44,377
			l19.3,119l19.3,82.3l19.3,73.5l19.3,54.2 M44,375.3l19.3,59.5l19.3,56l19.3,63l19.3,63l19.3,52.5l19.3,33.2l19.3,3.5 M44,373.5
			l19.3,50.7l19.3,35l19.3,21l19.3,21l19.3,31.5l19.3,49l19.3,63l19.3,56L218,706 M44,371.8l19.3,108.5l19.3,84L102,629l19.3,56
			l19.3,21 M44,370l19.3,38.5l19.3,33.3L102,468l19.3,21l19.3,43.7l19.3,28l19.3,43.7l19.3,59.5l19.3,36.8l19.3,5.2 M44,368.3
			l19.3,80.5l19.3,49l19.3,56l19.3,54.3l19.3,84l19.3,14 M44,366.5l19.3,36.8l19.3,59.5l19.3,49l19.3,36.8l19.3,57.8l19.3,68.2
			l19.3,31.5 M44,364.8L63.4,426l19.3,19.2l19.3,14l19.3,14l19.3,14l19.3,28l19.3,33.2l19.3,24.5l19.3,28l19.3,47.2l19.3,45.5
			L276,706 M44,363l19.3,71.7l19.3,73.5l19.3,56l19.3,68.2l19.3,61.3L160,706 M44,361.3l19.3,56l19.3,40.3l19.3,15.8l19.3,15.8
			l19.3,24.5l19.3,33.3l19.3,36.7l19.3,63l19.3,49l19.3,10.5 M44,359.5l19.3,42h19.3l19.3,1.8l19.3,14l19.3-1.7L160,426l19.3,1.7
			l19.3,1.8l19.3-5.2l19.3-5.2l19.3,3.5L276,426l19.3-3.5l19.3-8.8L334,412l19.3-1.7l19.3-7l19.3,3.5h19.3l19.3,3.5l19.3-3.5
			l19.3-8.8h19.3l19.3-1.8l19.3-8.8l19.3-5.2H566l19.3-1.8l19.3-5.2l19.3-3.5 M44,357.8l19.3,66.5L82.7,454l19.3,40.3l19.3,49
			l19.3,45.5l19.3,57.8l19.3,54.2l19.3,5.2 M44,356l19.3,24.5l19.3,3.5l19.3,1.7l19.3,31.5l19.3,10.5l19.3,1.8l19.3,1.8l19.3-3.5
			L218,433h19.3l19.3,5.2l19.3-8.8l19.3-3.5l19.3-7l19.3-17.5l19.3-7l19.3-3.5H392l19.3-5.2l19.3-5.2L450,377l19.3-3.5l19.3-17.5
			l19.3-15.8l19.3-12.2l19.3-19.2L566,293l19.3-10.5l19.3-8.7l19.3-14 M44,354.3L63.4,454l19.3,47.2l19.3,56l19.3,82.2l19.3,52.5
			l19.3,14 M44,352.5l19.3,12.2l19.3-14l19.3-3.5l19.3,1.7l19.3-12.2l19.3-5.2l19.3-14l19.3-10.5l19.3-14l19.3-12.2l19.3-10.5
			l19.3-24.5l19.3-7l19.3-3.5l19.3-15.8l19.3-12.2l19.3-5.2l19.3-5.2l19.3-14l19.3-12.2l19.3-15.8l19.3-22.8l19.3-17.5L508,97
			l19.3-10.5l19.3-14l19.3-7l19.3-19.2l19.3-14l19.3-7 M44,350.8l19.3,31.5l19.3,5.2l19.3-14l19.3-7l19.3-22.8l19.3-21l19.3-26.2
			l19.3-17.5l19.3-33.3l19.3-24.5l19.3-28l19.3-17.5l19.3-35l19.3-28L334,83l19.3-29.8l19.3-28L392-1l19.3-12.2l19.3-8.8L450-37.7
			l19.3-5.2l19.3-5.2L508-57h19.3l19.3-5.2l19.3-5.2l19.3-5.2l19.3-14l19.3-1.8 M44,349l19.3,40.3l19.3,8.7l19.3-5.2l19.3-15.8
			l19.3-7l19.3-10.5l19.3-29.8l19.3-24.5l19.3-24.5l19.3-21l19.3-24.5L276,216l19.3-21l19.3-59.5l19.3-26.2l19.3-28l19.3-28L392,20
			l19.3-22.8l19.3-17.5l19.3-14l19.3-5.2l19.3-8.8L508-57l19.3-8.7l19.3-14l19.3-3.5l19.3-12.2l19.3-17.5l19.3-10.5 M44,347.3
			l19.3,35l19.3-8.7L102,342l19.3-47.2l19.3-29.8l19.3-61.2l19.3-63l19.3-45.5L218,58.5l19.3-28l19.3-19.2L276-1l19.3-12.2
			l19.3-12.2L334-43l19.3-17.5l19.3-15.7l19.3-21l19.3-14l19.3-3.5l19.3-1.8l19.3-21h19.3l19.3-1.7l19.3-5.2l19.3-3.5l19.3,1.8
			l19.3-7l19.3,1.8l19.3-8.7 M44,345.5l19.3,89.2L82.7,475l19.3,50.8l19.3,56l19.3,64.7l19.3,56l19.3,3.5 M44,343.8l19.3,14
			L82.7,328l19.3-38.5l19.3-47.2l19.3-42L160,146l19.3-36.8l19.3-36.8L218,46.3l19.3-24.5l19.3-17.5L276-6.2l19.3-21l19.3-14
			L334-53.5L353.4-64l19.3-12.2l19.3-14l19.3-1.7l19.3-14l19.3-7l19.3-3.5l19.3-17.5l19.3-1.8l19.3-8.7l19.3-17.5l19.3,3.5l19.3-5.2
			h19.3L624-162 M44,342l19.3,56l19.3,7l19.3,10.5l19.3-3.5l19.3-5.2l19.3-17.5l19.3-12.3l19.3-14l19.3-21l19.3-12.3l19.3-19.2
			l19.3-8.8l19.3-15.8l19.3-19.2L334,251l19.3-26.2l19.3-35l19.3-31.5l19.3-45.5l19.3-40.2l19.3-7l19.3-26.2l19.3-3.5l19.3-21
			l19.3-21l19.3-10.5L566-39.5l19.3,5.2l19.3,5.2l19.3,5.2 M44,340.3l19.3,5.2l19.3-19.2l19.3-35l19.3-70l19.3-68.3L160,86.5
			l19.3-49l19.3-14L218,13l19.3-21l19.3-56L276-90.2l19.3-12.2l19.3-1.8L334-120l19.3,3.5l19.3-17.5l19.3-10.5h19.3l19.3-1.8
			L450-155l19.3-1.8l19.3-5.2l19.3-5.2l19.3-8.7l19.3-1.8l19.3-1.8l19.3-7l19.3-15.8L624-204"/>
		<path class="st3" d="M44,338.5L63.4,363l19.3,40.2l19.3,40.2l19.3,24.5l19.3,28l19.3,38.5l19.3,36.8l19.3,29.7l19.3,47.2
			l19.3,50.8l19.3,7 M44,336.8l19.3,43.7l19.3,3.5l19.3-31.5l19.3-29.8l19.3-8.8l19.3-33.2l19.3-12.2l19.3-21l19.3-29.8l19.3-24.5
			l19.3-17.5l19.3-19.2l19.3-31.5l19.3-24.5L334,76l19.3-19.2l19.3-21L392,25.3L411.4-1l19.3-5.2L450-22h19.3l19.3-7L508-39.5
			l19.3-3.5l19.3-1.8l19.3-8.8l19.3,3.5l19.3-7l19.3-3.5 M44,335l19.3,63l19.3,42l19.3,29.8l19.3,45.5l19.3,45.5l19.3,77l19.3,64.8
			l19.3,3.5 M44,333.3l19.3,103.3L82.7,503l19.3,78.8l19.3,85.7l19.3,38.5 M44,331.5l19.3,42l19.3,1.7l19.3-7l19.3-21l19.3-35
			l19.3-29.8l19.3-28l19.3-22.7L218,216l19.3-8.8l19.3-36.8l19.3-15.8l19.3-33.2L314.7,83L334,60.3L353.4,41l19.3-28L392-8
			l19.3-17.5l19.3-12.2L450-43l19.3-22.7h19.3L508-81.5L527.4-99l19.3-19.2l19.3-3.5l19.3,8.8l19.3-8.8l19.3,10.5 M44,329.8
			l19.3-3.5l19.3-28l19.3-21l19.3-15.8l19.3-29.7l19.3-35l19.3-36.8l19.3-38.5L218,88.3L237.4,48l19.3-12.2L276,23.5l19.3-7h19.3
			l19.3-1.8L353.4-1l19.3-36.8l19.3-21h19.3l19.3-8.8L450-79.7l19.3,3.5l19.3,1.7l19.3-5.2l19.3-3.5L546.7-99l19.3-7l19.3-10.5
			l19.3-14L624-141 M44,328l19.3-5.2l19.3-38.5L102,230l19.3-47.2l19.3-43.8l19.3-31.5l19.3-21L198.7,69L218,51.5l19.3-19.2
			l19.3-15.8l19.3-14l19.3-15.8l19.3-3.5l19.3,3.5l19.3-1.8l19.3,5.2H392h19.3l19.3,5.2l19.3-8.8l19.3-5.2l19.3-7L508-22l19.3-5.2
			h19.3l19.3-3.5l19.3-14l19.3-3.5l19.3-7 M44,326.3L63.4,279l19.3-89.3l19.3-31.5l19.3-29.8l19.3-49L160,41l19.3-22.8l19.3-28
			L218-27.2l19.3-26.2l19.3-15.8l19.3,3.5l19.3-5.2l19.3-3.5l19.3-8.8l19.3-17.5l19.3-5.2l19.3-15.8l19.3-5.2l19.3-5.2l19.3,3.5
			l19.3-1.8l19.3-7l19.3,1.8l19.3,7l19.3-5.2l19.3-1.8l19.3-3.5l19.3,5.2H624 M44,324.5l19.3,3.5l19.3-43.7L102,244l19.3-29.7
			l19.3-24.5l19.3-31.5l19.3-45.5l19.3-26.2L218,62l19.3-35l19.3-24.5L276-13.2l19.3-26.2L314.7-50l19.3-1.8l19.3-17.5l19.3-14
			l19.3-14l19.3-14l19.3-21L450-134l19.3,5.2l19.3,10.5l19.3-5.2h19.3l19.3-7L566-127l19.3,3.5l19.3-10.5l19.3-3.5 M44,322.8l19.3-7
			L82.7,279l19.3-66.5l19.3-80.5l19.3-43.8L160,35.8l19.3-19.2L198.7-22L218-50l19.3-19.2l19.3-14l19.3-14l19.3-7l19.3-5.2l19.3,5.2
			l19.3-7l19.3-12.2l19.3-7l19.3-15.8h19.3L450-162l19.3,1.8l19.3-5.2L508-169l19.3,10.5l19.3,1.8l19.3,7l19.3-5.2l19.3,1.7
			l19.3-10.5 M44,321l19.3,17.5l19.3,19.3l19.3,8.7l19.3-3.5l19.3-21l19.3-12.3l19.3-10.5l19.3-8.7l19.3-14l19.3-24.5l19.3-26.2
			l19.3-28l19.3-40.2l19.3-29.8L334,111l19.3-29.8L372.7,62L392,48l19.3-15.8L430.7,20L450,2.5l19.3-12.2l19.3-10.5L508-22h19.3
			l19.3-12.2l19.3-14l19.3-8.8l19.3-12.2l19.3-7 M44,319.3l19.3,38.5l19.3,5.2l19.3-15.8l19.3,14l19.3-28l19.3-3.5l19.3,3.5
			l19.3-17.5l19.3-26.2l19.3-21l19.3-21L276,230l19.3-12.2l19.3-15.8l19.3-19.2l19.3-22.8l19.3-12.2l19.3-7l19.3-7l19.3-10.5
			L450,118l19.3-8.8l19.3-10.5L508,86.5l19.3-21L546.7,55L566,44.5h19.3l19.3-1.8l19.3-7 M44,317.5l19.3,7l19.3-29.7l19.3-63
			l19.3-38.5l19.3-36.8L160,118l19.3-33.2l19.3-24.5l19.3-28L237.4,6l19.3-26.2L276-39.5l19.3-21l19.3-7l19.3-21l19.3-8.7h19.3
			L392-106l19.3-7l19.3-7l19.3-3.5l19.3-1.8l19.3-7H508l19.3-17.5l19.3,1.7l19.3-5.2l19.3-1.7l19.3-7l19.3,1.8 M44,315.8l19.3,57.8
			l19.3,3.5l19.3,7l19.3,7l19.3,7l19.3,12.3l19.3,3.5l19.3,1.8L218,419l19.3,7h19.3l19.3-3.5l19.3,1.8l19.3-12.2l19.3,8.8l19.3,1.7
			l19.3,7L392,433l19.3,3.5h19.3L450,440l19.3,5.2l19.3-5.2l19.3,17.5l19.3,1.7l19.3,7l19.3,3.5l19.3,3.5l19.3,1.7l19.3,1.8 M44,314
			l19.3,14l19.3-24.5l19.3-7l19.3-8.8l19.3-7l19.3-12.2l19.3-10.5l19.3-5.2L218,223l19.3-36.8l19.3-31.5l19.3-21l19.3-31.5
			l19.3-10.5L334,81.3l19.3-24.5l19.3-19.2L392,21.8l19.3-5.2l19.3-14L450-2.7l19.3-10.5l19.3-19.2l19.3-21l19.3,1.8l19.3,7
			L566-55.2l19.3-19.2l19.3-21L624-106 M44,312.3l19.3,45.5l19.3-21l19.3,3.5l19.3-15.8l19.3-7L160,307l19.3-3.5l19.3-12.2L218,279
			l19.3-14l19.3-15.8l19.3-15.8l19.3-40.2l19.3-29.8l19.3-29.8l19.3-31.5L372.7,76L392,48l19.3-24.5l19.3-22.8l19.3-14l19.3-12.2
			l19.3-12.2L508-43l19.3-3.5l19.3-1.8L566-57l19.3-5.2l19.3-8.7l19.3-1.8"/>
		<path class="st2" d="M44,399.8l19.3,106.7L82.7,587l19.3,66.5l19.3,52.5 M44,398l19.3,61.2l19.3,52.5l19.3,66.5l19.3,59.5
			l19.3,61.3l19.3,7 M44,396.3l19.3,96.2L82.7,580l19.3,80.5l19.3,45.5 M44,394.5l19.3,47.2l19.3,38.5l19.3,47.2l19.3,38.5
			l19.3,50.7l19.3,43.8l19.3,45.5 M44,392.8l19.3,80.5l19.3,73.5l19.3,66.5l19.3,71.7l19.3,19.3L160,706 M44,391l19.3,56l19.3,82.2
			l19.3,82.2l19.3,64.8l19.3,29.7 M44,389.3l19.3,110.2l19.3,61.2l19.3,87.5l19.3,56l19.3,1.7 M44,387.5l19.3,85.8l19.3,94.5
			l19.3,42l19.3,50.8l19.3,45.5 M44,385.8L63.4,440l19.3,63l19.3,49l19.3,66.5l19.3,70L160,706 M44,384l19.3,59.5L82.7,468
			l19.3,38.5l19.3,43.8l19.3,56l19.3,59.5l19.3,38.5l19.3,1.7 M44,382.3L63.4,433l19.3,24.5l19.3,42l19.3,35l19.3,38.5l19.3,70
			l19.3,54.2l19.3,8.8 M44,380.5l19.3,54.2l19.3,52.5l19.3,40.2l19.3,31.5l19.3,40.2L160,664l19.3,40.3l19.3,1.7 M44,378.8l19.3,91
			L82.7,531l19.3,70l19.3,80.5l19.3,24.5 M44,377l19.3,75.3l19.3,47.2l19.3,49l19.3,57.8l19.3,64.8l19.3,31.5l19.3,3.5 M44,375.3
			l19.3,117.2L82.7,594l19.3,78.8l19.3,33.2 M44,373.5L63.4,405l19.3,38.5l19.3,22.8l19.3,28l19.3,43.7l19.3,42l19.3,50.8l19.3,64.8
			L218,706 M44,371.8l19.3,78.8l19.3,64.8L102,580l19.3,64.8l19.3,50.7L160,706 M44,370l19.3,82.3l19.3,75.2l19.3,61.2l19.3,71.8
			l19.3,42L160,706 M44,368.3l19.3,42l19.3,56l19.3,56l19.3,57.8l19.3,64.8l19.3,52.5l19.3,8.8 M44,366.5L63.4,356l19.3-22.8
			L102,307l19.3-70l19.3-50.8l19.3-52.5l19.3-42l19.3-47.2L218,6l19.3-28l19.3-21L276-58.7h19.3h19.3L334-64l19.3-15.8l19.3-3.5
			L392-85l19.3-12.2l19.3-10.5l19.3-24.5l19.3-14l19.3-5.2L508-155l19.3-5.2l19.3,1.7l19.3,1.8l19.3,3.5l19.3-8.8l19.3,3.5
			 M44,364.8l19.3,50.8l19.3,40.2L102,496l19.3,40.3l19.3,56l19.3,73.5l19.3,40.2 M44,363l19.3,75.2l19.3,26.2l19.3,29.8l19.3,38.5
			l19.3,29.8l19.3,35l19.3,56l19.3,45.5l19.3,7 M44,361.3l19.3,52.5l19.3,42l19.3,45.5l19.3,63l19.3,75.3L160,699l19.3,7 M44,359.5
			L63.4,342l19.3-5.2l19.3-21l19.3-50.8l19.3-42l19.3-35l19.3-42l19.3-33.2l19.3-14l19.3-26.2l19.3-26.2L276,23.5l19.3-33.2l19.3-14
			l19.3-8.8l19.3-5.2l19.3,5.2L392-44.7l19.3-7l19.3-10.5l19.3,1.8l19.3-8.8l19.3-7L508-86.7l19.3-3.5l19.3-15.8l19.3-19.2l19.3-3.5
			h19.3L624-134 M44,357.8l19.3,73.5l19.3,54.2l19.3,40.3l19.3,47.2l19.3,43.7l19.3,59.5l19.3,28l19.3,1.7 M44,356l19.3,26.2
			L82.7,412l19.3,22.8l19.3,19.2l19.3-1.7l19.3-1.8l19.3,12.3l19.3-3.5L218,461l19.3,12.3l19.3,21l19.3,19.2l19.3,21l19.3,24.5
			l19.3,33.3l19.3,36.8l19.3,52.5l19.3,22.8l19.3,1.7 M44,354.3L63.4,384l19.3,28l19.3,8.8l19.3,15.8l19.3,8.7l19.3,7l19.3,7
			l19.3,14l19.3,7l19.3,12.2l19.3,14l19.3,33.3l19.3,31.5l19.3,42l19.3,52.5l19.3,40.2 M44,352.5L63.4,412l19.3,21l19.3,17.5
			l19.3,33.3l19.3,45.5l19.3,47.3l19.3,54.2l19.3,47.2l19.3,26.3l19.3,1.7 M44,350.8l19.3,22.8l19.3,8.7l19.3,35l19.3,22.8
			l19.3,43.8l19.3,59.5l19.3,64.8l19.3,63l19.3,35 M44,349l19.3,19.3L82.7,384l19.3-12.3l19.3,21l19.3-8.7l19.3-14l19.3-8.8
			l19.3-1.8L218,363l19.3-8.8l19.3-5.2l19.3-5.2l19.3-7l19.3-19.3H334l19.3-8.8l19.3-14l19.3-17.5l19.3-19.2l19.3-31.5l19.3-28
			l19.3-21l19.3-7L508,153l19.3-21l19.3-21L566,98.8L585.4,76l19.3-21L624,30.5 M44,347.3l19.3,68.2l19.3,40.2l19.3,24.5l19.3,50.8
			l19.3,19.2l19.3,42l19.3,61.2l19.3,50.8L218,706 M44,345.5l19.3,57.8L82.7,447l19.3,54.2l19.3,42l19.3,43.8l19.3,61.2l19.3,56
			l19.3,1.7 M44,343.8l19.3,1.8L82.7,314l19.3-28l19.3-43.7l19.3-52.5l19.3-33.2l19.3-38.5l19.3-24.5L218,60.3L237.4,41l19.3-21
			L276-4.5L295.4-15l19.3-5.2l19.3-14l19.3-10.5l19.3-14l19.3-3.5l19.3-5.2l19.3-3.5L450-83.2l19.3-3.5L488.7-99l19.3-8.7l19.3-5.2
			l19.3-10.5L566-134l19.3-3.5l19.3-5.2l19.3-7 M44,342l19.3,3.5L82.7,335l19.3-7l19.3-29.8l19.3-24.5l19.3-19.3l19.3-17.5l19.3-21
			l19.3-40.3l19.3-24.5l19.3-5.2l19.3-12.2l19.3-12.2l19.3-10.5L334,91.8l19.3-5.2L372.7,69l19.3-7l19.3-7l19.3-7L450,37.5
			l19.3-12.2l19.3-15.8L508,0.8l19.3-7L546.7-8l19.3-5.2l19.3,1.8l19.3-1.8L624-9.7 M44,340.3L63.4,398l19.3,40.2L102,447l19.3,35
			l19.3,38.5l19.3,36.8l19.3,50.8l19.3,75.2L218,706"/>
		<path class="st3" d="M44,338.5l19.3-5.2l19.3,14l19.3-24.5l19.3-28l19.3-22.8l19.3-19.2l19.3-35l19.3-28L218,167l19.3-28
			l19.3-29.8L276,93.5L295.4,69l19.3-21L334,16.5l19.3-21l19.3-14L392-30.7l19.3-5.2l19.3-8.8L450-60.5L469.4-78l19.3-5.2L508-92
			l19.3-10.5l19.3-10.5l19.3,5.2l19.3-7l19.3-7H624 M44,336.8L63.4,384l19.3,10.5l19.3,19.2l19.3-1.8l19.3,12.2L160,426l19.3,3.5
			l19.3-1.8L218,419l19.3-10.5l19.3-10.5l19.3-14l19.3-8.8l19.3-10.5L334,349l19.3-24.5l19.3-14l19.3-26.2l19.3-33.3l19.3-35
			l19.3-12.2l19.3-14l19.3-15.8l19.3-28l19.3-22.8l19.3-14L566,98.8l19.3-12.2L604.7,62L624,35.8 M44,335l19.3,19.2l19.3-3.5
			L102,328l19.3-47.2l19.3-38.5l19.3-59.5l19.3-42l19.3-21L218,76l19.3-21l19.3-24.5L276,0.8l19.3-10.5l19.3-8.8L334-22l19.3-3.5
			l19.3-8.8l19.3-7l19.3-21l19.3-3.5l19.3,5.2l19.3,1.8l19.3,1.8l19.3-7l19.3-7h19.3l19.3-3.5l19.3-3.5l19.3-1.8L624-90.2 M44,333.3
			l19.3,26.2l19.3-5.2l19.3-38.5l19.3-50.8l19.3-50.7l19.3-24.5l19.3-17.5l19.3-31.5L218,118l19.3-15.8L256.7,83L276,72.5h19.3
			l19.3-5.2L334,48l19.3-1.8l19.3-17.5l19.3-5.2L411.4,13l19.3-5.2L450,4.3h19.3l19.3-17.5L508-29l19.3-21l19.3-5.2l19.3-3.5
			l19.3-8.8L604.7-78L624-90.2 M44,331.5l19.3-7l19.3-8.7L102,286l19.3-43.7l19.3-42l19.3-29.8l19.3-31.5l19.3-28L218,86.5
			l19.3-19.2l19.3-28L276,27l19.3-22.8l19.3-1.8L334-8l19.3-3.5l19.3-3.5l19.3-8.8L411.4-36l19.3-7L450-67.5l19.3-8.7l19.3,1.7
			l19.3-14l19.3,8.8l19.3-3.5l19.3,7l19.3-14l19.3,1.8l19.3-1.8 M44,329.8l19.3,1.8l19.3-5.2l19.3-31.5l19.3-15.8l19.3-28l19.3-40.2
			l19.3-24.5l19.3-10.5l19.3-10.5l19.3-15.8l19.3-17.5l19.3-22.8l19.3-7l19.3-28L334,69l19.3-10.5l19.3-19.2l19.3-21l19.3-17.5
			l19.3-12.2l19.3-5.2l19.3-5.2l19.3-10.5l19.3,1.8l19.3-8.8l19.3-19.2l19.3,3.5l19.3-8.8l19.3-3.5l19.3-5.2 M44,328l19.3,31.5
			l19.3-36.8l19.3-45.5l19.3-47.2l19.3-47.2L160,139l19.3-29.8l19.3-24.5L218,51.5l19.3-26.2L256.7-1L276-13.2l19.3-12.2h19.3
			l19.3-7l19.3-14l19.3-7L392-69.2l19.3,3.5l19.3-14L450-90.2l19.3-10.5l19.3-8.8l19.3-8.7l19.3,8.7h19.3l19.3-7l19.3-5.2l19.3-3.5
			l19.3,7 M44,326.3l19.3,19.2L82.7,335l19.3-50.7l19.3-54.3l19.3-70l19.3-36.8l19.3-57.8l19.3-35L218-1l19.3-17.5L256.7-36L276-50
			l19.3-15.7l19.3-7H334l19.3,1.8l19.3,1.7l19.3-5.2h19.3l19.3,3.5L450-85l19.3-7l19.3-8.8l19.3-1.7l19.3,1.7l19.3-12.2l19.3,1.7
			L585.4-99l19.3-14l19.3-7 M44,324.5l19.3-8.7l19.3-31.5l19.3-42l19.3-33.3l19.3-31.5L160,132l19.3-38.5L198.7,69L218,49.8l19.3-42
			l19.3-33.2L276-43l19.3-14l19.3-21l19.3-1.8l19.3-15.8l19.3-17.5l19.3-5.2l19.3-1.8l19.3-5.2l19.3-10.5l19.3,3.5l19.3-1.7H508
			l19.3-5.2h19.3l19.3,1.7l19.3-5.2h19.3H624 M44,322.8l19.3-12.2l19.3-36.8l19.3-47.2l19.3-54.3l19.3-42l19.3-22.8L179.4,97
			l19.3-17.5l19.3-28l19.3-7l19.3-12.2l19.3-14L295.4,6l19.3-8.8l19.3-7L353.4-8l19.3-8.8l19.3-3.5l19.3-8.8l19.3-3.5l19.3-8.8
			l19.3-5.2l19.3-7l19.3-7l19.3-7l19.3-3.5l19.3-8.8l19.3-3.5l19.3-3.5L624-76.2 M44,321l19.3,12.2l19.3,17.5l19.3-7l19.3-17.5
			l19.3-14l19.3-8.8l19.3-15.8l19.3-19.2l19.3-22.8l19.3-12.2l19.3-22.7l19.3-17.5l19.3-24.5l19.3-22.8l19.3-22.8L353.4,97l19.3-8.8
			L392,76l19.3-15.8l19.3-8.8L450,25.3l19.3-21L488.7-8H508l19.3-14l19.3-17.5L566-50l19.3-8.8l19.3-10.5l19.3-5.2 M44,319.3
			l19.3,52.5l19.3,28L102,405l19.3-14l19.3-22.7L160,349l19.3-19.2l19.3-12.2l19.3-26.2l19.3-36.8l19.3-29.8L276,202l19.3-15.8
			l19.3-24.5L334,132l19.3-33.2l19.3-31.5L392,42.8l19.3-26.2L430.7-8L450-20.2l19.3-3.5l19.3-7L508-41.2h19.3h19.3L566-43
			l19.3-10.5L604.7-64L624-79.7 M44,317.5l19.3,22.8h19.3l19.3-21l19.3-49l19.3-17.5l19.3-31.5l19.3-14l19.3-29.8l19.3-29.8
			l19.3-26.2l19.3-22.8l19.3-28l19.3-12.2l19.3-21l19.3-28l19.3-12.2l19.3-7l19.3-7l19.3-8.8l19.3-15.8l19.3-14l19.3-8.8l19.3-1.7
			H508l19.3-7l19.3-1.8L566-71l19.3-3.5l19.3-14l19.3,7 M44,315.8L63.4,356l19.3-7l19.3-26.2l19.3-31.5l19.3-36.8L160,216l19.3-45.5
			l19.3-43.8L218,81.3l19.3-10.5l19.3-28L276,16.5l19.3-19.2l19.3-1.8L334-8l19.3-14l19.3-14l19.3,3.5h19.3l19.3-5.2l19.3-7
			l19.3,1.8l19.3-14L508-71l19.3-7l19.3,5.2l19.3-1.8h19.3l19.3-8.8l19.3-17.5 M44,314l19.3-10.5l19.3-29.7l19.3-70l19.3-66.5
			l19.3-29.8l19.3-28L179.4,62l19.3-26.2L218,9.5l19.3-22.8L256.7-29L276-46.5l19.3-29.7L314.7-92l19.3-28l19.3-3.5l19.3-12.3
			l19.3-15.8l19.3-8.7h19.3l19.3,1.7l19.3-7l19.3-8.8l19.3,3.5l19.3,1.7l19.3-1.7l19.3,3.5l19.3-3.5l19.3-3.5L624-176 M44,312.3
			l19.3-22.7l19.3-35l19.3-42l19.3-38.5l19.3-12.2l19.3-45.5l19.3-28l19.3-38.5L218,27l19.3-19.2l19.3-17.5L276-41.2L295.4-64
			l19.3-8.8L334-95.5l19.3-8.8l19.3,3.5l19.3-3.5h19.3l19.3-14l19.3,3.5l19.3-3.5l19.3-7l19.3-7l19.3-3.5l19.3,8.8l19.3-10.5
			l19.3,1.8h19.3l19.3,5.2"/>
		<path class="st2" d="M44,399.8l19.3,91l19.3,70L102,629l19.3,68.2l19.3,8.8 M44,398l19.3,134.8l19.3,112l19.3,57.7l19.3,3.5
			 M44,396.3l19.3,66.5L82.7,517l19.3,59.5l19.3,52.5l19.3,59.5L160,706 M44,394.5l19.3,110.2l19.3,80.5l19.3,87.5l19.3,33.2
			 M44,392.8l19.3,43.8l19.3,75.2l19.3,52.5l19.3,54.3l19.3,59.5l19.3,28 M44,391l19.3,7l19.3,26.2l19.3,19.2l19.3,31.5l19.3,21
			l19.3,35l19.3,29.8l19.3,47.2l19.3,43.7l19.3,42l19.3,12.2 M44,389.3l19.3,89.2L82.7,587l19.3,87.5l19.3,29.8l19.3,1.7 M44,387.5
			l19.3,84l19.3,91l19.3,68.2l19.3,63l19.3,10.5L160,706 M44,385.8l19.3,24.5l19.3,40.2l19.3,21l19.3,22.8l19.3,10.5l19.3,15.8
			l19.3,21l19.3,29.8l19.3,19.2l19.3,24.5l19.3,40.3l19.3,40.2l19.3,10.5 M44,384l19.3,75.2l19.3,82.3l19.3,84l19.3,68.3l19.3,12.2
			 M44,382.3l19.3,45.5l19.3,17.5l19.3,19.2l19.3,1.8l19.3,14l19.3,10.5l19.3,15.8l19.3,17.5l19.3,26.3l19.3,33.2l19.3,38.5
			l19.3,59.5l19.3,24.5 M44,380.5l19.3,103.3l19.3,92.8l19.3,82.2l19.3,38.5l19.3,8.8 M44,378.8l19.3,99.8l19.3,85.7l19.3,59.5
			l19.3,52.5l19.3,28L160,706 M44,377l19.3,78.8l19.3,45.5l19.3,42l19.3,56l19.3,68.2L160,706 M44,375.3l19.3,103.3l19.3,84
			l19.3,64.7l19.3,61.2l19.3,17.5 M44,373.5l19.3,26.2l19.3,24.5l19.3,35l19.3,28l19.3,38.5l19.3,42l19.3,40.2l19.3,73.5L218,706
			 M44,371.8l19.3,73.5l19.3,52.5l19.3,56l19.3,59.5l19.3,73.5L160,706 M44,370l19.3,80.5l19.3,19.2l19.3,24.5l19.3,42l19.3,43.7
			l19.3,63l19.3,57.8l19.3,5.2 M44,368.3l19.3,66.5l19.3,38.5l19.3,42l19.3,42l19.3,50.8l19.3,64.7l19.3,31.5l19.3,1.7 M44,366.5
			l19.3,54.3l19.3,35l19.3,21l19.3,43.8l19.3,38.5l19.3,64.8l19.3,71.7l19.3,10.5 M44,364.8l19.3,50.8l19.3,15.8l19.3,10.5
			l19.3-15.8l19.3-1.8l19.3,3.5l19.3,7l19.3-3.5l19.3,3.5h19.3l19.3-1.8H276h19.3l19.3,5.2l19.3,5.2l19.3,3.5h19.3l19.3,3.5
			l19.3,5.2l19.3-1.8l19.3-1.7l19.3-3.5l19.3-7l19.3,3.5l19.3,3.5l19.3,3.5H566h19.3h19.3H624 M44,363l19.3,35l19.3-17.5l19.3-22.7
			l19.3-21l19.3-22.8l19.3-21l19.3-29.7l19.3-47.3l19.3-19.3l19.3-31.5l19.3-19.2l19.3-21l19.3-22.8l19.3-24.5L334,53.3l19.3-35
			l19.3-17.5L392-16.7l19.3-8.8L430.7-43L450-53.5l19.3-8.8l19.3-17.5l19.3-8.8h19.3L546.7-99l19.3-17.5l19.3-5.2l19.3,1.8l19.3-1.8
			 M44,361.3l19.3,40.2l19.3,42l19.3,47.2l19.3,36.8l19.3,36.8l19.3,35l19.3,45.5l19.3,50.7L218,706 M44,359.5L63.4,398l19.3,38.5
			l19.3,42l19.3,50.7l19.3,38.5L160,629l19.3,71.7l19.3,5.2 M44,357.8l19.3,52.5L82.7,447l19.3,21l19.3,14l19.3,28l19.3,49
			l19.3,59.5l19.3,64.7l19.3,21l19.3,1.7 M44,356l19.3,78.8L82.7,468l19.3,43.7l19.3,42l19.3,61.2l19.3,68.2l19.3,22.8 M44,354.3
			l19.3,40.3l19.3,29.7l19.3,31.5l19.3,38.5l19.3,31.5l19.3,21l19.3,36.7l19.3,31.5l19.3,49l19.3,40.3l19.3,1.7 M44,352.5L63.4,426
			l19.3,64.7l19.3,59.5l19.3,68.2l19.3,71.7L160,706 M44,350.8l19.3,71.8l19.3,36.8l19.3,24.5l19.3,43.7l19.3,57.8l19.3,59.5
			l19.3,57.7l19.3,3.5 M44,349l19.3,78.8l19.3,66.5l19.3,68.2l19.3,77l19.3,63L160,706 M44,347.3L63.4,328l19.3-21l19.3-19.2
			l19.3-42l19.3-31.5l19.3-38.5l19.3-59.5L198.7,76L218,30.5l19.3-22.8L256.7-8L276,0.8l19.3-19.2L314.7-29L334-55.2l19.3-17.5
			l19.3-3.5l19.3-3.5l19.3-3.5l19.3-5.2l19.3-12.2l19.3-3.5l19.3-12.2l19.3-8.8h19.3l19.3,1.8l19.3-21l19.3-7l19.3-17.5l19.3-7
			 M44,345.5l19.3,47.2l19.3,43.8l19.3,26.2l19.3,36.8l19.3,40.2l19.3,64.7l19.3,70l19.3,31.5 M44,343.8l19.3,8.8l19.3,5.2H102
			l19.3-12.3l19.3-14l19.3-22.8l19.3-29.7l19.3-19.3l19.3-40.2l19.3-28l19.3-33.2L276,132l19.3-17.5l19.3-14L334,81.3L353.4,62
			l19.3-3.5L392,55l19.3-33.2l19.3-12.2L450-8l19.3-22.8L488.7-50L508-64l19.3-12.2l19.3-14l19.3-21h19.3l19.3-3.5l19.3-1.8 M44,342
			l19.3,38.5l19.3,42l19.3,35l19.3,42l19.3,35l19.3,40.2l19.3,47.2l19.3,70l19.3,14 M44,340.3L63.4,384l19.3,29.7L102,447l19.3,19.2
			l19.3-3.5L160,468l19.3,1.7l19.3,1.8l19.3,7l19.3,7l19.3,12.2l19.3,7l19.3,10.5l19.3,10.5l19.3,17.5l19.3,26.2l19.3,43.8
			l19.3,61.2l19.3,31.5"/>
		<path class="st3" d="M44,338.5l19.3,33.2l19.3,22.8l19.3,22.7l19.3,12.2l19.3,5.2l19.3,15.8l19.3,19.2l19.3,19.3l19.3,29.7
			l19.3,40.2l19.3,56l19.3,54.2l19.3,33.2l19.3,1.8H334h19.3h19.3H392h19.3h19.3H450h19.3h19.3H508h19.3h19.3H566h19.3h19.3H624
			 M44,336.8l19.3,15.8l19.3,8.7L102,363l19.3,3.5l19.3-15.8l19.3-24.5l19.3-21l19.3-29.8l19.3-29.8l19.3-21l19.3-33.2l19.3-35
			l19.3-33.2l19.3-22.8L334,81.3l19.3-31.5l19.3-24.5L392,7.8l19.3-19.2l19.3-8.8L450-22l19.3-15.8l19.3-17.5l19.3-5.2l19.3-5.2
			l19.3-10.5L566-86.7l19.3-10.5l19.3-7L624-106 M44,335l19.3,40.2l19.3,12.2l19.3,35l19.3,26.2l19.3,14L160,475l19.3,12.2l19.3,14
			L218,517l19.3,14l19.3,15.8L276,566l19.3,29.7l19.3,45.5l19.3,56l19.3,8.8 M44,333.3l19.3,3.5l19.3-7l19.3-12.2l19.3-19.2l19.3-35
			l19.3-22.8l19.3-21l19.3-40.2L218,160l19.3-15.8l19.3-17.5L276,125l19.3-10.5l19.3-8.8L334,86.5l19.3-14L372.7,55L392,41l19.3-1.8
			l19.3-21l19.3-7l19.3-8.8l19.3-12.2l19.3-8.8l19.3-8.8l19.3-3.5L566-29l19.3,10.5l19.3-1.8L624-32.5 M44,331.5L63.4,370l19.3,54.2
			l19.3,40.2l19.3,31.5l19.3,52.5l19.3,71.8l19.3,61.3l19.3,24.5 M44,329.8l19.3,87.5l19.3,52.5L102,510l19.3,38.5l19.3,36.8
			l19.3,47.2l19.3,64.8l19.3,8.8 M44,328l19.3,29.8h19.3l19.3,7l19.3,3.5l19.3-12.3H160l19.3-17.5h19.3L218,328l19.3-10.5l19.3-15.8
			L276,293l19.3-17.5l19.3-22.7L334,230l19.3-22.8l19.3-24.5l19.3-14l19.3-7l19.3-24.5l19.3-15.8l19.3-26.2l19.3-17.5l19.3-7
			l19.3-17.5l19.3-7L566,28.8l19.3-7l19.3-8.8L624-1 M44,326.3l19.3,5.2L82.7,293l19.3-28l19.3-31.5l19.3-36.8l19.3-31.5l19.3-36.8
			l19.3-36.8L218,60.3L237.4,20l19.3-12.2l19.3-7L295.4-8l19.3-19.2L334-57l19.3-17.5l19.3-5.2l19.3-21l19.3,1.8l19.3-19.2L450-120
			l19.3-15.8l19.3-5.2l19.3,7l19.3-10.5l19.3,12.2L566-141l19.3,5.2l19.3,3.5l19.3-3.5 M44,324.5l19.3,5.2l19.3-7L102,279l19.3-45.5
			l19.3-33.2l19.3-29.8l19.3-49l19.3-26.2l19.3-28l19.3-14L256.7,34L276,2.5l19.3-15.8l19.3-7L334-32.5l19.3-14l19.3-8.8l19.3-7
			l19.3-7l19.3,5.2l19.3-7l19.3,1.7l19.3-5.2l19.3-1.7l19.3-5.2l19.3-7l19.3-8.7h19.3l19.3-5.2l19.3,1.7 M44,322.8L63.4,342l19.3-28
			l19.3-7l19.3-12.2l19.3-36.8l19.3-22.8l19.3-17.5l19.3-19.2l19.3-21l19.3-26.2l19.3-21l19.3-7l19.3-15.8l19.3-22.8L334,65.5
			l19.3-14l19.3-22.8L392,16.5l19.3-12.2L430.7-1L450-9.7l19.3-7l19.3-5.2l19.3-3.5l19.3-15.8l19.3-10.5L566-64l19.3-8.8l19.3-8.7
			l19.3-8.8 M44,321l19.3,36.8l19.3-3.5l19.3-7l19.3-15.8l19.3-14L160,314l19.3-5.2l19.3-19.2L218,265l19.3-15.8l19.3-22.7L276,195
			l19.3-8.8l19.3-24.5L334,139l19.3-24.5l19.3-22.8L392,60.3l19.3-7l19.3-14l19.3-8.8l19.3-19.2l19.3-15.8l19.3-7l19.3-12.2
			l19.3-1.8L566-36l19.3-15.8l19.3-5.2l19.3-8.7 M44,319.3l19.3,3.5l19.3-24.5l19.3-45.5l19.3-45.5l19.3-49l19.3-42l19.3-36.8
			l19.3-35L218,20l19.3-21l19.3-22.8H276L295.4-57l19.3-19.2l19.3-7l19.3-1.8l19.3-15.8L392-106l19.3-8.8l19.3-3.5L450-113l19.3,5.2
			l19.3-5.2l19.3-19.3l19.3,8.8l19.3-1.8L566-134l19.3-7l19.3-1.8L624-148 M44,317.5l19.3,42L82.7,391l19.3,17.5l19.3,22.8
			l19.3,10.5l19.3,15.8l19.3,14l19.3,22.8l19.3,19.2l19.3,21l19.3,17.5l19.3,38.5l19.3,56l19.3,50.8L334,706 M44,315.8l19.3-3.5
			l19.3-28l19.3-36.8l19.3-38.5l19.3-24.5l19.3-33.2l19.3-21l19.3-17.5l19.3-10.5L237.4,83l19.3-19.2L276,53.3l19.3-15.8l19.3-14
			l19.3-8.8l19.3-17.5L372.7-8l19.3-5.2l19.3-21l19.3-14L450-60.5l19.3-5.2h19.3L508-71l19.3-8.8l19.3-10.5l19.3,7l19.3-5.2l19.3-7
			L624-99 M44,314l19.3,10.5l19.3-19.2l19.3-22.8l19.3-14l19.3-47.2l19.3-29.8l19.3-8.8l19.3-38.5l19.3-21l19.3-15.8l19.3-26.2
			L276,56.8l19.3-7L314.7,34L334,16.5L353.4-8l19.3-14l19.3-7l19.3-1.8l19.3-7l19.3-8.8l19.3-12.2l19.3-1.8L508-76.2l19.3-1.8
			l19.3-15.8L566-92l19.3-5.2h19.3l19.3-5.2 M44,312.3l19.3,12.2l19.3-47.2l19.3-38.5l19.3-64.8l19.3-45.5L160,81.3L179.4,41
			l19.3-26.2L218-4.5l19.3-8.8h19.3L276-29l19.3-3.5l19.3-5.2L334-43l19.3-5.2l19.3-17.5L392-78l19.3-8.7l19.3-10.5l19.3-10.5
			l19.3-3.5l19.3,8.8l19.3-5.2l19.3,5.2l19.3-3.5l19.3-8.8l19.3-1.8l19.3-3.5l19.3,1.8"/>
		<path class="st2" d="M44,399.8l19.3,70l19.3,56l19.3,42l19.3,61.2l19.3,63l19.3,14 M44,398l19.3,63l19.3,50.8L102,573l19.3,43.7
			l19.3,66.5L160,706 M44,396.3l19.3,42L82.7,482l19.3,28l19.3,38.5l19.3,50.8L160,671l19.3,33.2l19.3,1.7 M44,394.5l19.3,117.2
			L82.7,594l19.3,77l19.3,35 M44,392.8l19.3,31.5l19.3,17.5L102,468l19.3,28l19.3,22.8l19.3,29.8l19.3,47.2l19.3,56l19.3,52.5
			l19.3,1.7 M44,391l19.3,108.5l19.3,103.2L102,678l19.3,28 M44,389.3l19.3,59.5l19.3,78.8l19.3,84l19.3,68.2l19.3,26.2 M44,387.5
			L63.4,475l19.3,45.5l19.3,47.2l19.3,49l19.3,56L160,706 M44,385.8l19.3,64.8L82.7,538l19.3,70l19.3,63l19.3,33.2L160,706 M44,384
			l19.3,49l19.3,49l19.3,47.2l19.3,52.5l19.3,47.2l19.3,61.2l19.3,15.8 M44,382.3l19.3,98L82.7,559l19.3,82.2l19.3,61.2l19.3,3.5
			 M44,380.5l19.3,124.3L82.7,594l19.3,77l19.3,35 M44,378.8l19.3,91L82.7,524l19.3,45.5l19.3,73.5l19.3,54.2L160,706 M44,377
			l19.3,87.5l19.3,56L102,573l19.3,66.5l19.3,59.5l19.3,7 M44,375.3l19.3,52.5l19.3,52.5L102,517l19.3,31.5l19.3,33.3L160,643
			l19.3,49l19.3,14 M44,373.5l19.3,56L82.7,489l19.3,61.2l19.3,63l19.3,64.7l19.3,28 M44,371.8l19.3,36.8l19.3,29.8l19.3,21l19.3,28
			l19.3,29.8l19.3,42l19.3,68.2l19.3,64.8l19.3,14 M44,370l19.3,87.5L82.7,524l19.3,56l19.3,64.8l19.3,57.7L160,706 M44,368.3
			l19.3,77l19.3,70l19.3,47.2l19.3,66.5l19.3,64.8L160,706 M44,366.5l19.3,98l19.3,92.8l19.3,96.2l19.3,52.5 M44,364.8l19.3,66.5
			L82.7,461l19.3,56l19.3,38.5l19.3,43.7l19.3,56l19.3,49l19.3,1.7 M44,363l19.3,84l19.3,56l19.3,63l19.3,54.2l19.3,57.8l19.3,26.3
			l19.3,1.7 M44,361.3l19.3,10.5L82.7,398l19.3,5.2l19.3-14l19.3-14l19.3-21l19.3-33.2l19.3-33.3l19.3-24.5l19.3-38.5l19.3-40.2
			L276,139l19.3-40.2l19.3-35L334,32.3l19.3-35l19.3-31.5L392-58.7l19.3,10.5l19.3-28l19.3-7l19.3,5.2l19.3,1.8L508-71l19.3-15.8
			l19.3-15.8l19.3-7l19.3-5.2l19.3-7H624 M44,359.5l19.3,70l19.3,29.8L102,489l19.3,26.2l19.3,40.2l19.3,40.2l19.3,64.8l19.3,42
			L218,706 M44,357.8L63.4,419l19.3,35l19.3,31.5l19.3,24.5l19.3,21l19.3,24.5l19.3,26.2l19.3,56l19.3,50.8l19.3,17.5 M44,356
			l19.3,38.5l19.3,22.7l19.3-1.7l19.3-3.5l19.3,5.2L160,426l19.3,14l19.3,8.8l19.3,1.8l19.3,8.8l19.3,12.2l19.3,12.3l19.3,15.8
			l19.3,24.5l19.3,36.8l19.3,45.5l19.3,43.8l19.3,50.7l19.3,5.2 M44,354.3l19.3,63l19.3,49l19.3,40.2l19.3,42l19.3,54.3L160,657
			l19.3,47.3l19.3,1.7 M44,352.5l19.3,54.2l19.3,35l19.3,21l19.3,35l19.3,38.5l19.3,54.2l19.3,64.8l19.3,50.7 M44,350.8l19.3,85.8
			l19.3,57.8l19.3,61.2l19.3,70l19.3,68.3L160,706 M44,349l19.3,21l19.3,14l19.3-24.5l19.3-19.2l19.3-14l19.3-38.5l19.3-40.2
			l19.3-36.8l19.3-40.3l19.3-52.5l19.3-29.8L276,42.8l19.3-31.5l19.3-15.8L334-29l19.3-17.5l19.3-12.2l19.3-3.5l19.3-3.5l19.3-5.2
			l19.3-7l19.3-22.8l19.3-21L508-134l19.3-1.8l19.3-1.8l19.3-12.2h19.3l19.3-3.5L624-155 M44,347.3l19.3,61.2l19.3,33.3l19.3,31.5
			l19.3,14l19.3,29.8l19.3,50.8l19.3,64.7l19.3,64.8L218,706 M44,345.5l19.3,22.8L82.7,349l19.3-40.2l19.3-7l19.3-45.5L160,209
			l19.3-45.5l19.3-35L218,88.3l19.3-31.5l19.3-21l19.3-5.2l19.3-21l19.3,1.8L334,0.8l19.3-28l19.3-5.2l19.3-21l19.3-5.2l19.3-21
			L450-99l19.3-3.5l19.3-5.2l19.3-3.5l19.3-5.2l19.3-3.5l19.3-15.8l19.3-1.8l19.3-5.2L624-155 M44,343.8L63.4,405l19.3,15.8
			l19.3,36.8l19.3,31.5l19.3,3.5l19.3,19.2l19.3,10.5l19.3,21l19.3,21l19.3,38.5l19.3,49L276,706 M44,342l19.3,40.2l19.3,42L102,468
			l19.3,45.5l19.3,43.8L160,601l19.3,64.8l19.3,36.7L218,706 M44,340.3l19.3,17.5L82.7,370l19.3,7l19.3,1.8l19.3,3.5H160l19.3,5.2
			l19.3-12.2l19.3,3.5h19.3l19.3-7l19.3-12.2l19.3-7l19.3-15.8l19.3-7l19.3-3.5l19.3-1.8l19.3-7l19.3-14l19.3-14l19.3-12.3
			l19.3-26.2l19.3-17.5l19.3-15.8l19.3-17.5l19.3-19.3l19.3-24.5l19.3-19.2l19.3-29.8L624,76"/>
		<path class="st3" d="M44,338.5l19.3,14l19.3-1.8l19.3-3.5l19.3-8.8l19.3-7l19.3-15.8l19.3-35l19.3-21L218,244l19.3-22.7l19.3-38.5
			L276,153l19.3-15.8l19.3-21L334,93.5L353.4,76l19.3-17.5L392,35.8l19.3-12.2l19.3-19.2L450-18.5l19.3-3.5l19.3-8.8l19.3-21
			l19.3-10.5h19.3l19.3-7h19.3l19.3-5.2L624-85 M44,336.8L63.4,363l19.3-10.5l19.3-12.3l19.3-33.2l19.3-29.8l19.3-38.5l19.3-43.7
			l19.3-22.8L218,160l19.3-29.8l19.3-29.8L276,88.3l19.3-1.8l19.3-22.8L334,53.3L353.4,27l19.3-5.2l19.3-14l19.3-10.5l19.3-17.5
			L450-36l19.3-5.2l19.3-10.5H508l19.3-3.5L546.7-71l19.3-3.5l19.3-3.5l19.3,5.2l19.3-1.8 M44,335l19.3,77l19.3,28l19.3,26.2
			l19.3,29.8l19.3,35l19.3,42l19.3,54.2l19.3,61.2L218,706 M44,333.3l19.3,61.3l19.3-8.8l19.3-5.2l19.3-17.5l19.3-38.5l19.3-42
			l19.3-40.2l19.3-61.3l19.3-36.8l19.3-33.2l19.3-19.2l19.3-28l19.3-19.2l19.3-21l19.3-7l19.3-21l19.3-5.2L392-27.2l19.3-8.8
			l19.3-5.2l19.3-3.5l19.3-1.8l19.3-19.2l19.3-8.8l19.3-7l19.3-12.3L566-99l19.3-12.2l19.3-7l19.3,3.5 M44,331.5l19.3,15.8
			l19.3,17.5l19.3-14l19.3-10.5l19.3-35L160,279l19.3-24.5l19.3-38.5l19.3-36.8l19.3-28l19.3-29.8L276,98.8l19.3-19.2L314.7,62
			L334,30.5l19.3-22.8L372.7-8l19.3-7l19.3-17.5l19.3-5.2l19.3-3.5l19.3-12.2l19.3-8.8l19.3-3.5l19.3-15.8L546.7-92l19.3-7l19.3-5.2
			l19.3,10.5l19.3,5.2 M44,329.8l19.3,35l19.3,35l19.3,21l19.3,15.8l19.3,10.5l19.3,8.7l19.3,1.8l19.3,21l19.3,15.8l19.3,15.8
			l19.3,12.2l19.3,24.5l19.3,38.5l19.3,35l19.3,59.5l19.3,26.2 M44,328l19.3,31.5L82.7,370l19.3,17.5l19.3,29.8l19.3,8.8l19.3,26.2
			l19.3,17.5l19.3,14L218,496l19.3,12.2l19.3,15.8l19.3,15.8l19.3,33.2l19.3,43.7L334,664l19.3,38.5l19.3,3.5 M44,326.3l19.3,70
			l19.3,38.5L102,475l19.3,45.5l19.3,50.8l19.3,77l19.3,49l19.3,8.8 M44,324.5l19.3,89.2L82.7,454l19.3,31.5l19.3,29.8l19.3,22.7
			l19.3,38.5l19.3,54.2l19.3,59.5L218,706 M44,322.8l19.3,43.8l19.3,33.3l19.3,36.8l19.3,40.2l19.3,38.5l19.3,61.2l19.3,66.5
			l19.3,56l19.3,7 M44,321l19.3,19.2l19.3-3.5L102,321l19.3-40.3l19.3-33.2L160,209l19.3-56l19.3-47.2l19.3-35L237.4,34l19.3-21
			L276-6.2l19.3-17.5l19.3-7l19.3-14l19.3-10.5L372.7-71L392-90.2l19.3-3.5l19.3-14l19.3-3.5l19.3-7l19.3-5.2l19.3-7l19.3-1.8
			l19.3,3.5l19.3-1.8l19.3-1.8l19.3-3.5H624 M44,319.3h19.3l19.3-15.8L102,279l19.3-50.8l19.3-26.2l19.3-24.5l19.3-36.8l19.3-36.8
			L218,67.3L237.4,34l19.3-29.8L276-18.5l19.3-15.8l19.3-10.5L334-43l19.3-12.2l19.3-8.8l19.3-5.2l19.3-3.5l19.3-5.2L450-95.5
			l19.3-10.5l19.3-8.8l19.3-7l19.3,1.8l19.3-5.2L566-134l19.3-8.8l19.3-1.7L624-141 M44,317.5L63.4,342l19.3-35l19.3-56l19.3-35
			l19.3-56l19.3-40.2L179.4,90l19.3-17.5L218,62l19.3-10.5L256.7,41L276,25.3L295.4-8l19.3-14L334-34.2l19.3-5.2l19.3-1.8L392-58.7
			h19.3l19.3-15.8l19.3-7l19.3-5.2l19.3-1.8l19.3-5.2h19.3l19.3,5.2L566-99l19.3-3.5l19.3,1.7l19.3-8.8 M44,315.8l19.3,24.5h19.3
			l19.3,5.2l19.3-8.7l19.3,1.7H160l19.3,14l19.3,5.2l19.3,14l19.3-3.5l19.3,3.5l19.3,1.8l19.3,3.5l19.3,3.5L334,377l19.3,14
			l19.3,1.8L392,391l19.3,8.8l19.3,3.5H450l19.3-1.8l19.3,3.5l19.3,10.5l19.3,7l19.3,12.2l19.3,3.5l19.3,8.8l19.3,14l19.3,17.5
			 M44,314l19.3,29.8l19.3-3.5H102l19.3,10.5h19.3l19.3,8.8h19.3l19.3,1.8l19.3,3.5l19.3-1.7l19.3-8.8l19.3-3.5l19.3-3.5l19.3-5.2
			l19.3-10.5l19.3-5.2l19.3-1.8L392,321l19.3-15.8l19.3-12.3l19.3-29.7l19.3-19.3l19.3-15.8L508,216l19.3-3.5l19.3-5.2l19.3-24.5
			l19.3-26.2l19.3-12.2L624,125 M44,312.3L63.4,328l19.3,3.5L102,321l19.3-31.5l19.3-22.8l19.3-24.5l19.3-8.8l19.3-17.5l19.3-5.2
			l19.3-21l19.3-17.5L276,146l19.3-19.2l19.3-21L334,88.3l19.3-17.5L372.7,55L392,32.3l19.3-1.8L430.7,13L450-9.7l19.3,5.2L488.7-8
			L508-9.7L527.4-8l19.3-7l19.3-5.2l19.3,3.5l19.3-1.8l19.3,1.8"/>
		<path class="st2" d="M44,399.8L63.4,440l19.3,50.8l19.3,22.8l19.3,45.5l19.3,61.2L160,685l19.3,21 M44,398l19.3,68.2L82.7,524
			l19.3,61.2l19.3,57.8l19.3,50.8L160,706 M44,396.3l19.3,96.2l19.3,70l19.3,84l19.3,59.5 M44,394.5l19.3,54.2l19.3,31.5l19.3,28
			l19.3,29.8l19.3,38.5l19.3,56l19.3,54.3l19.3,19.2 M44,392.8l19.3,56l19.3,45.5L102,538l19.3,43.8l19.3,45.5L160,678l19.3,28
			 M44,391l19.3,82.3l19.3,68.2l19.3,70l19.3,70l19.3,24.5 M44,389.3l19.3,31.5l19.3,17.5l19.3,14l19.3,17.5l19.3,28l19.3,28
			l19.3,28l19.3,36.8L218,650l19.3,50.7l19.3,5.2 M44,387.5L63.4,489l19.3,108.5l19.3,82.2l19.3,26.2 M44,385.8l19.3,38.5l19.3,54.3
			l19.3,28l19.3,40.3l19.3,50.8l19.3,68.2l19.3,38.5l19.3,1.7 M44,384l19.3,56l19.3,66.5L102,566l19.3,77l19.3,61.3L160,706
			 M44,382.3l19.3,35l19.3-3.5L102,419l19.3,1.8l19.3-12.3l19.3-21l19.3-10.5l19.3-7l19.3-26.2h19.3l19.3-10.5L276,314l19.3-26.2
			l19.3-31.5l19.3-35l19.3-33.3l19.3-28l19.3-26.2l19.3-35L430.7,69L450,51.5l19.3-21L488.7-8L508-39.5l19.3-15.8l19.3-21L566-113
			l19.3-10.5l19.3-7L624-141 M44,380.5l19.3,54.2L82.7,489l19.3,50.8l19.3,33.2l19.3,66.5l19.3,56l19.3,10.5 M44,378.8l19.3,24.5
			l19.3-1.8l19.3-7l19.3-3.5l19.3-14l19.3-17.5l19.3-7l19.3-22.8L218,314l19.3-24.5l19.3-33.3l19.3-31.5l19.3-47.2l19.3-47.2
			L334,86.5l19.3-33.2L372.7,27L392-1l19.3-29.8l19.3-8.8l19.3-14L469.4-64l19.3-10.5L508-86.7l19.3-7l19.3-5.2l19.3-1.8l19.3,10.5
			l19.3,3.5L624-92 M44,377l19.3,31.5l19.3,19.2l19.3,17.5l19.3,15.8l19.3,26.2l19.3,33.3l19.3,21l19.3,29.8l19.3,26.2l19.3,33.2
			l19.3,57.8L276,706 M44,375.3l19.3,89.2l19.3,71.8l19.3,66.5l19.3,73.5l19.3,29.7 M44,373.5l19.3,28l19.3,28L102,447l19.3,3.5
			l19.3,10.5l19.3,24.5l19.3,21l19.3,33.3l19.3,42l19.3,49l19.3,57.8L276,706 M44,371.8l19.3,35l19.3,22.8l19.3,22.8l19.3,35
			l19.3,38.5l19.3,43.7l19.3,57.8l19.3,63L218,706 M44,370l19.3,50.8L82.7,433l19.3,14l19.3,8.7l19.3,10.5l19.3,7l19.3,5.2l19.3,7
			L218,489l19.3,14l19.3,7l19.3,10.5l19.3,1.7l19.3,7l19.3,17.5l19.3,15.8l19.3,33.2l19.3,49l19.3,47.2l19.3,14 M44,368.3l19.3,12.2
			l19.3-5.2l19.3-7l19.3-3.5l19.3-10.5l19.3-15.8l19.3-10.5l19.3-17.5l19.3-8.8l19.3-8.8l19.3-21l19.3-21l19.3-21l19.3-35l19.3-19.3
			l19.3-28l19.3-24.5L392,111l19.3-33.2l19.3-21L450,30.5L469.4,6l19.3-7L508-4.5l19.3-1.8L546.7-22l19.3-1.8l19.3-1.8l19.3-7
			l19.3-7 M44,366.5l19.3,75.3l19.3,73.5l19.3,42l19.3,52.5l19.3,68.2l19.3,28 M44,364.8l19.3,59.5L82.7,475l19.3,38.5l19.3,36.8
			l19.3,38.5L160,650l19.3,49l19.3,7 M44,363l19.3,105l19.3,71.8L102,608l19.3,63l19.3,35 M44,361.3l19.3,45.5l19.3,7L102,398
			l19.3-8.7l19.3-7l19.3-8.7l19.3-17.5l19.3,5.2l19.3-10.5l19.3-7l19.3-10.5l19.3-14l19.3-8.7l19.3-22.8l19.3-19.2l19.3-12.3
			l19.3-17.5l19.3-12.2l19.3-7l19.3-8.7l19.3-24.5l19.3-21l19.3-21l19.3-22.8l19.3-5.2l19.3-17.5L566,67.3l19.3-31.5l19.3-24.5
			L624-13.2 M44,359.5l19.3,84L82.7,517l19.3,68.2l19.3,80.5l19.3,38.5L160,706 M44,357.8l19.3,63l19.3,14l19.3,28l19.3,21
			l19.3,22.7l19.3,28l19.3,36.8l19.3,50.7l19.3,64.8l19.3,19.2 M44,356l19.3,10.5l19.3,26.2l19.3,14l19.3,22.8l19.3,8.8H160
			l19.3-17.5l19.3-10.5L218,398l19.3-5.2l19.3-12.2l19.3-15.8l19.3-14l19.3-21l19.3-14l19.3-22.8l19.3-26.2l19.3-14l19.3-14l19.3-21
			l19.3-17.5l19.3-28l19.3-26.2l19.3-33.2L527.4,90l19.3-22.8L566,62l19.3-22.8l19.3-10.5l19.3-21 M44,354.3l19.3,77l19.3,14
			L102,461l19.3,26.2l19.3,33.3l19.3,33.2l19.3,28l19.3,38.5l19.3,61.3l19.3,24.5 M44,352.5l19.3,84L82.7,468l19.3,33.2l19.3,47.2
			l19.3,56l19.3,61.3l19.3,36.7l19.3,3.5 M44,350.8l19.3,38.5l19.3,40.2l19.3,47.2l19.3,52.5l19.3,54.2l19.3,70l19.3,43.8l19.3,8.8
			 M44,349l19.3,45.5l19.3,33.2l19.3,36.8l19.3,31.5l19.3,35l19.3,40.2l19.3,57.8l19.3,56l19.3,21 M44,347.3l19.3,52.5l19.3,15.8
			l19.3,1.7l19.3-3.5l19.3,1.8H160l19.3,1.7l19.3-5.2l19.3,12.2l19.3,7l19.3,1.7l19.3-5.2l19.3,8.8l19.3-1.8l19.3-5.2l19.3,1.8h19.3
			l19.3,3.5l19.3-1.8h19.3l19.3-3.5h19.3l19.3,3.5l19.3,1.8l19.3,3.5l19.3,1.8H566h19.3h19.3l19.3-1.8 M44,345.5l19.3,56L82.7,426
			l19.3,21l19.3,8.7l19.3,28l19.3,3.5l19.3,3.5l19.3,12.2l19.3,17.5l19.3,17.5l19.3,19.3l19.3,26.2l19.3,40.3l19.3,50.7L334,706
			 M44,343.8l19.3-12.2l19.3-7l19.3,5.2l19.3-17.5l19.3-19.2l19.3-10.5l19.3-31.5l19.3-14l19.3-26.3l19.3-17.5l19.3-19.2l19.3-36.8
			l19.3-19.2l19.3-14l19.3-3.5l19.3-15.8L372.7,69L392,39.3l19.3-21l19.3-14L450-13.2l19.3-10.5l19.3,1.8l19.3-3.5L527.4-43l19.3-14
			l19.3-7l19.3-5.2l19.3,1.8l19.3-1.8 M44,342l19.3,66.5L82.7,426l19.3,42l19.3,35l19.3,26.2L160,559l19.3,36.8l19.3,64.8L218,699
			l19.3,7 M44,340.3l19.3,19.2l19.3,33.2l19.3-3.5l19.3-10.5l19.3-1.8l19.3-5.2l19.3-8.7h19.3l19.3,1.7l19.3-10.5l19.3-19.2l19.3-14
			l19.3-10.5l19.3-15.8l19.3-21l19.3-7l19.3-21l19.3-19.2l19.3-12.3l19.3-24.5l19.3-31.5l19.3-31.5l19.3-8.8l19.3-15.8l19.3-14
			l19.3-31.5L566,34l19.3-24.5l19.3-12.2L624-29"/>
		<path class="st3" d="M44,338.5l19.3,35l19.3-33.3l19.3-15.8l19.3-28l19.3-24.5l19.3-8.7l19.3-22.8l19.3-50.8l19.3-28l19.3-33.2
			l19.3-19.2L276,90l19.3-15.8L314.7,55L334,37.5l19.3-21l19.3-8.8L392,4.3l19.3-10.5l19.3-7L450-15l19.3-17.5l19.3-14L508-62.2
			h19.3l19.3-8.7l19.3,1.7l19.3-12.2l19.3-8.8l19.3-3.5 M44,336.8l19.3,38.5l19.3,1.8l19.3-7l19.3-14l19.3-8.7L160,328l19.3-24.5
			l19.3-15.8l19.3-17.5l19.3-21l19.3-17.5l19.3-26.3l19.3-38.5l19.3-63L334,69l19.3-28l19.3-24.5L392,4.3L411.4-8l19.3-8.8L450-41.2
			l19.3-14l19.3-3.5L508-78l19.3-5.2l19.3-7L566-106l19.3-15.8l19.3-5.2H624 M44,335l19.3,26.2l19.3-3.5l19.3-10.5l19.3-5.2
			l19.3,12.2l19.3,5.2h19.3l19.3-8.8l19.3-10.5l19.3-14l19.3,5.2L276,328l19.3-5.2l19.3-8.8l19.3-1.8l19.3-3.5l19.3-1.8l19.3-7
			l19.3-3.5l19.3-12.2l19.3-14l19.3-10.5l19.3-17.5L508,230l19.3-12.2l19.3-12.2l19.3-8.8l19.3-10.5l19.3-17.5l19.3-12.2 M44,333.3
			l19.3-15.8l19.3-40.2l19.3-38.5l19.3-47.2l19.3-52.5l19.3-36.8L179.4,69l19.3-26.2l19.3-3.5l19.3-17.5L256.7,6L276-8l19.3-26.2
			l19.3-17.5L334-57l19.3-14l19.3-12.3l19.3-3.5l19.3-10.5l19.3,1.7l19.3-19.2l19.3-12.2l19.3-10.5l19.3,15.8l19.3,5.2l19.3,1.8H566
			l19.3,5.2h19.3l19.3,7 M44,331.5l19.3,89.2l19.3,78.8l19.3,54.2l19.3,56l19.3,68.2l19.3,28 M44,329.8l19.3,28l19.3,17.5l19.3-24.5
			l19.3-19.2l19.3-19.3l19.3-8.8l19.3-14l19.3-12.3L218,272l19.3-12.2l19.3-3.5l19.3-7l19.3-10.5l19.3-15.8l19.3-15.8l19.3-14
			l19.3-17.5l19.3-26.2l19.3-31.5l19.3-19.2L450,86.5l19.3-22.8l19.3-24.5L508,21.8l19.3-10.5l19.3-17.5l19.3-5.2l19.3-5.2L604.7-29
			l19.3-7 M44,328l19.3,77l19.3,12.2L102,426l19.3,15.8l19.3,15.8l19.3-1.8l19.3,1.8l19.3,12.2l19.3,24.5l19.3,26.2l19.3,33.2
			l19.3,43.8l19.3,63l19.3,45.5 M44,326.3L63.4,377l19.3-14l19.3-21l19.3-28l19.3-36.8l19.3-14h19.3l19.3-14l19.3-29.8l19.3-24.5
			l19.3-31.5l19.3-28l19.3-8.8l19.3-7l19.3-14l19.3-7l19.3-17.5L392,62l19.3-43.8L430.7-8L450-4.5l19.3-22.8l19.3-8.8L508-51.7h19.3
			l19.3-1.8l19.3-5.2l19.3-14l19.3-1.8l19.3-5.2 M44,324.5L63.4,356l19.3-7l19.3-36.8l19.3,1.8l19.3-35l19.3-33.3l19.3-28l19.3-36.8
			l19.3-17.5l19.3-29.8l19.3-35L276,81.3L295.4,55l19.3-19.2L334,25.3l19.3-14l19.3-17.5L392-15l19.3-12.2l19.3-19.2l19.3-1.8
			l19.3-10.5l19.3-17.5l19.3-5.2l19.3-8.8l19.3,1.8l19.3-1.8l19.3-5.2l19.3-19.2l19.3-3.5 M44,322.8l19.3,35l19.3,17.5l19.3,14
			l19.3-1.8l19.3-1.8l19.3-3.5l19.3,7l19.3-3.5L218,384l19.3-3.5l19.3-3.5H276h19.3l19.3,3.5L334,384l19.3,7l19.3,7l19.3-5.2
			l19.3,1.8h19.3l19.3,5.2l19.3-5.2l19.3-1.8l19.3,3.5l19.3-3.5l19.3,5.2H566l19.3,1.8l19.3,5.2l19.3-1.8 M44,321l19.3,29.7
			l19.3-40.2H102l19.3-8.8l19.3-24.5L160,265l19.3-24.5l19.3-31.5l19.3-22.8l19.3-35l19.3-22.8L276,98.8l19.3-38.5l19.3-21L334,16.5
			h19.3l19.3-1.8L392-4.5L411.4-15l19.3-8.8l19.3-8.8l19.3-12.2L488.7-71L508-85l19.3-1.7l19.3-1.8L566-92l19.3-3.5l19.3,3.5
			l19.3-8.8 M44,319.3l19.3,26.2l19.3,1.8L102,349l19.3-8.8l19.3-22.8l19.3-8.8l19.3-10.5h19.3l19.3-14l19.3-15.8l19.3-24.5l19.3-28
			l19.3-22.8l19.3-45.5l19.3-33.2L353.4,76l19.3-31.5l19.3-21L411.4,13l19.3-19.2L450-18.5l19.3-22.8l19.3-10.5L508-62.2l19.3-5.2
			l19.3-3.5L566-86.7l19.3-24.5l19.3-15.8l19.3-14 M44,317.5l19.3,22.8l19.3,14l19.3,24.5l19.3-3.5l19.3,12.2l19.3-12.2l19.3,1.8
			l19.3-1.8L218,370l19.3-5.2l19.3-12.2H276l19.3-1.8l19.3-10.5L334,335l19.3-8.7l19.3-7l19.3-17.5l19.3-5.2l19.3-14L450,279
			l19.3-14l19.3-17.5l19.3-29.8l19.3-15.8l19.3-14l19.3-17.5l19.3-29.8l19.3-19.2L624,97 M44,315.8l19.3-5.2l19.3-21l19.3-29.8
			l19.3-40.2l19.3-21l19.3-26.3l19.3-14l19.3-17.5l19.3-17.5l19.3-8.8l19.3-22.8L276,81.3h19.3l19.3-7l19.3-7l19.3-8.8l19.3-29.8
			L392,20l19.3-1.8l19.3-10.5L450,9.5l19.3-15.8L488.7-8l19.3-8.8l19.3-3.5l19.3-5.2L566-41.2l19.3-5.2l19.3,3.5l19.3-5.2 M44,314
			l19.3-8.7l19.3-1.8l19.3-12.2l19.3-40.2l19.3-24.5L160,195l19.3-38.5l19.3-49L218,55l19.3-33.2L256.7-1L276-37.7l19.3-17.5h19.3
			L334-74.5l19.3-21l19.3-8.8l19.3-3.5l19.3-8.8l19.3,1.8L450-120l19.3-7l19.3-1.7l19.3,5.2l19.3-8.8l19.3,3.5l19.3-14l19.3-14
			l19.3,7l19.3-8.8 M44,312.3l19.3,17.5l19.3-54.2L102,258l19.3-33.3l19.3-36.8l19.3-28l19.3-14l19.3-28L218,90l19.3-19.2l19.3-21
			l19.3-14l19.3-10.5L314.7,13L334,0.8l19.3-14L372.7-29l19.3-1.8h19.3l19.3,1.8l19.3-3.5l19.3,3.5l19.3-14l19.3-1.8l19.3-3.5
			l19.3-8.8l19.3-1.8l19.3,3.5l19.3-1.8l19.3-1.8"/>
	</g>
	<path class="st4" d="M44,6v700h580 M44,706v3 M140.7,706v3 M237.4,706v3 M334,706v3 M430.7,706v3 M527.4,706v3 M623.8,706v3
		 M44,706h-3 M44,618.5h-3 M44,531h-3 M44,443.5h-3 M44,356h-3 M44,268.5h-3 M44,181h-3 M44,93.5h-3 M44,6.3h-3"/>
	<text transform="matrix(1 0 0 1 229.5757 722.521)" class="st5 st6 st7">10</text>
	<text transform="matrix(1 0 0 1 136.2423 722.521)" class="st5 st6 st7">5</text>
	<text transform="matrix(1 0 0 1 39.909 722.521)" class="st5 st6 st7">0</text>
	<text transform="matrix(1 0 0 1 326.2397 722.521)" class="st5 st6 st7">15</text>
	<text transform="matrix(1 0 0 1 422.9116 722.521)" class="st5 st6 st7">20</text>
	<text transform="matrix(1 0 0 1 519.5757 722.521)" class="st5 st6 st7">25</text>
	<text transform="matrix(1 0 0 1 616.2397 722.521)" class="st5 st6 st7">30</text>
	<text transform="matrix(1 0 0 1 31.8413 712.021)" class="st5 st6 st7">0</text>
	<text transform="matrix(1 0 0 1 24.0522 624.521)" class="st5 st6 st7">50</text>
	<text transform="matrix(1 0 0 1 16.271 537.021)" class="st5 st6 st7">100</text>
	<text transform="matrix(1 0 0 1 16.271 449.521)" class="st5 st6 st7">150</text>
	<text transform="matrix(1 0 0 1 16.271 362.021)" class="st5 st6 st7">200</text>
	<text transform="matrix(1 0 0 1 16.271 274.521)" class="st5 st6 st7">250</text>
	<text transform="matrix(1 0 0 1 16.271 187.021)" class="st5 st6 st7">300</text>
	<text transform="matrix(1 0 0 1 16.271 99.521)" class="st5 st6 st7">350</text>
	<text transform="matrix(1 0 0 1 16.271 12.021)" class="st5 st6 st7">400</text>
	<text transform="matrix(1 0 0 1 229.7554 738.021)" class="st5 st6 st7">iterations of pooled recall process</text>
	<text transform="matrix(0 -1 1 0 12.021 465.7397)" class="st5 st6 st7">hamming distance between vectors</text>
</g>
</svg>
